<?xml version="1.0" encoding="utf-8"?>
<!-- Generator: Adobe Illustrator 24.0.1, SVG Export Plug-In . SVG Version: 6.00 Build 0)  -->
<svg version="1.1" id="Layer_1" xmlns="http://www.w3.org/2000/svg" xmlns:xlink="http://www.w3.org/1999/xlink" x="0px" y="0px"
	 viewBox="0 0 1366 768" style="enable-background:new 0 0 1366 768;" xml:space="preserve">
<style type="text/css">
	.st0{opacity:0.94;fill:#FEA82F;stroke:#00001A;stroke-width:6;stroke-miterlimit:10;}
	.st1{opacity:0.93;fill:#00001A;stroke:#FFFFFF;stroke-width:8;stroke-linecap:round;stroke-miterlimit:10;}
	.st2{fill:none;}
	.st3{fill:#FFFFFF;}
	.st4{font-family:'FranklinGothic-Heavy';}
	.st5{font-size:136.2548px;}
	.st6{fill:#FEA82F;}
</style>
<g>
	<circle class="st0" cx="294.42" cy="268.85" r="260"/>
	<circle class="st1" cx="293.5" cy="267.5" r="199.5"/>
	<path id="SVGID_x5F_1_x5F_" class="st2" d="M301.83,460.88c-113.99,5.47-210.68-79.36-215.96-189.47
		C80.58,161.3,168.71,67.6,282.7,62.14c113.99-5.47,210.68,79.36,215.96,189.47C503.94,361.72,415.82,455.42,301.83,460.88z"/>
	<text>	<textPath  xlink:href="#SVGID_x5F_1_x5F_" startOffset="0.7257%">
<tspan  class="st4" style="fill:#00001A; font-size:60px;">NEW SPHERE GYM</tspan>	</textPath>
</text>
	<path id="SVGID_x5F_2_x5F_" class="st2" d="M290.26,68.24c129.46-3.85,237.43,94.37,241.15,219.37s-98.22,229.47-227.68,233.32
		C174.27,524.79,66.3,426.57,62.59,301.56C58.87,176.56,160.8,72.09,290.26,68.24z"/>
	<text>	<textPath  xlink:href="#SVGID_x5F_2_x5F_" startOffset="0.7257%">
<tspan  class="st4" style="fill:#00001A; font-size:68.0734px;">2021</tspan>	</textPath>
</text>
	<g>
		<path class="st3" d="M486.48,215.5c-1.97-2.29-4.97-3.83-7.41-5.44c-3.42-2.24-6.93-4.33-10.47-6.33
			c-2.73-1.55-5.42-3.07-8.06-4.66c-1.44-2.32-2.97-4.57-4.63-6.72c-4.92-6.37-11.28-10.47-18.39-13.48
			c-3.36-1.42-6.82-2.56-10.34-3.43c-3.08-0.57-6.21-0.93-9.41-0.99c-11.16-0.23-22.43,2.3-32.5,7.42c-0.09,0.04-0.2-0.08-0.11-0.15
			c5.55-4.91,11.94-7.97,18.71-9.57c-11.31-11.99-26.25-19.71-42.46-20.42c-12.82-0.56-23.87,4.14-33.32,11.69
			c-8.67,0.43-17.21,2.43-25.76,4.36c-7.8,1.76-15.62,3.26-23.51,4.36c-1.06-0.41-2.12-0.83-3.19-1.26
			c-3.75-1.53-7.46-3.16-11.23-4.61c-2.3-0.88-4.65-1.59-6.97-2.39c-0.64-6.19-3.05-11.87-6.7-16.88c-2.12-2.9-4.87-5.23-7.78-7.17
			c-3.74-2.49-8.18-3.3-11.97-5.69c-3.6-2.27-4.92-8-6.92-11.68c-1.78-3.28-4.1-6.1-6.94-8.37c-6.97-5.56-15.31-1.25-21.52,3.29
			c-3.93,2.87-7.7,5.33-12.16,7.19c-4,1.67-8.05,3.1-11.87,5.24c-6.96,3.9-11.62,11.26-13.22,19.36c-0.88,4.47-0.38,9.17-0.22,13.68
			c0.18,5.2-0.78,10.31-0.09,15.5c0.45,3.39,2.61,6.3,5.26,8.03c2.34,1.53,5.3,0.14,7.78,0.42c3.65,5.92,5.47,12.43,7.9,19.31
			c1.18,3.34,3.94,4.2,6.83,4.01c2.36,5.66,5.34,11.04,8.51,16.2c0.92,1.5,2.53,5.09,4.72,4.77c1.78-0.26,3.62-1.22,5.4-2.34
			c0.62,1.71,1.27,3.38,2.74,4.57c1.44,1.17,3.43,0.97,5.46,0.22c0.55,1.2,1.4,2.25,2.44,2.87c1.57,0.95,3,1.25,4.79,1.51
			c2.03,0.29,2.96,2.34,4.46,3.39c1.62-0.07,3.2-0.28,4.68-0.76c6.33-2.01,8.48-8.49,11.38-14.2c2.76-5.44,7.89-12.45,8.02-18.79
			c0.12-5.75-2.72-10.77-5.46-15.51c-0.11-0.2,0.16-0.43,0.3-0.25c2.12,2.58,4.58,5.6,6.06,8.94c4.88,7.05,12.05,12.29,16.86,19.49
			c0.2,0.3-0.21,0.56-0.44,0.37c-3.8-3.17-7.14-7.09-10.42-10.85c-1.57-1.79-3.31-3.54-4.86-5.44c0.19,1.06,0.26,2.14,0.17,3.25
			c-0.47,5.44-2.96,10.42-5.51,15.22c2.83-0.7,5.7-0.43,8.6,0.68c0.21,0.08,0.13,0.41-0.09,0.35c-3.41-0.83-6.83-0.14-9.89,1.56
			c-0.41,0.77-0.81,1.54-1.19,2.3c-2.83,5.63-5.29,12.65-11.01,15.57c-1.33,0.68-2.82,1.09-4.4,1.33c-0.05,0.13-0.1,0.25-0.14,0.38
			c-6,0.03-12,1.22-17.59,3.53c-6.65,2.75-12.2,8.1-17.12,13.46c-4.8,5.23-8.72,11.27-10.94,18.23c-1.46,4.57-1.82,9.46-1.72,14.35
			c-8.46,3.28-15.86,8.18-21.57,16.55c-0.11,0.16-0.2,0.33-0.31,0.49c-0.29,0.71-0.57,1.44-0.82,2.19
			c-3.23,9.75-3.64,22.09,1.55,31.24c0.22,0.39-0.35,0.75-0.58,0.36c-1.79-3.13-3.17-6.3-4.13-9.53
			c-0.39,7.25-1.83,14.37-4.25,20.66c-0.11,0.29-0.51,0.19-0.45-0.13c1.62-8.52,2.63-16.88,1.87-25.58
			c-0.19-2.2-0.47-4.34-0.83-6.44c-3.54-4.89-7.84-9.36-11.32-13.64c-7.74-9.53-14.68-19.3-19.65-30.62c0.03-0.1,0.05-0.2,0.07-0.3
			c-0.8-0.05-1.57,0.02-2.29,0.25c-2.71,0.88-5.34,1.67-8.17,0.8c-4.58-1.42-10.2-3.51-10.68-9.32c-0.05-0.62,0.8-0.68,0.97-0.14
			c1.49,4.74,7.32,6.69,11.63,6.47c2.85-0.15,5.49-2.04,8.37-1.65c1.08,0.15,2.15,0.36,3.21,0.64c1.72,0.03,3.41-0.07,5.03-0.46
			c2.18-0.53,3.35-2.39,4.03-4.47c1.68-0.49,3.31-1.17,4.39-2.4c0.92-1.04,1.33-2.81,1.77-4.11c0.01-0.02,0.01-0.04,0.02-0.07
			c2.45-0.95,5.06-2.19,6.09-4.29c0.44-0.89,0.77-1.83,1.01-2.8c2.36-2.47,2.55-6.14,2.4-9.89c-0.23-5.6-1.94-8.44-6.78-10.64
			c-2.77-1.26-5.36-2.85-7.89-4.58c-1.8-1.23-4.36-3.91-6.76-3.57c-3.74,0.53-4.79,3.1-5.75,6.08c-5.55,6.56-11.49,12.7-17.55,18.73
			c-5.29,5.26-11,12.37-9.74,20.72c1.21,8.05,5.92,15.32,9.75,22.55c1.91,8.37,3.19,16.89,3.87,25.65
			c1.1,14.29,2.02,28.71,8.19,41.71c2.96,6.23,7.6,11.03,12.09,15.99c3.89,4.29,6.61,11.05,11.82,13.7c4.49,2.29,9.42-1.1,12.8-4
			c0.97-0.83,1.9-1.72,2.81-2.64c16.76-4.48,32.06-12.35,46.26-23.24c7.11-5.45,15.25-11.79,20.3-19.53
			c3.69-5.66,4.58-13.29,6.99-19.77c9.58,3.32,17.95,9.97,27.29,14.09c8.59,3.78,17.59,4.73,26.46,3.17
			c-0.95-1.78-2.04-3.5-3.32-5.14c-4.78-6.11-11.19-10.41-15.79-16.72c-0.17-0.24,0.1-0.55,0.31-0.34
			c6.81,6.52,15.06,10.24,20.22,18.73c0.67,1.1,1.31,2.24,1.91,3.41c6.24,5.68,11.54,12.27,14.08,21.09
			c2.03,7.03-0.45,13.1-0.64,20.06c-0.02,0.93,0.09,1.84,0.32,2.7c-0.05,0.09-0.06,0.21,0.01,0.33c0.07,0.12,0.14,0.23,0.21,0.35
			c0.68,1.9,1.97,3.5,3.67,4.45c4.71,4.01,11.29,5.23,17.36,6.09c11.25,1.59,22.52,0.67,33.69-1.19c11-1.83,21.9-4.67,32.67-7.66
			c8.88-2.46,17.59-5.52,25.81-9.84c-2.13-6.07-2.89-12.71-2.03-19.06c0.7-5.22,2.35-10.12,4.15-14.95
			c-2.22-8.43-5.33-16.69-7.8-24.81c-0.86-2.81-1.6-5.65-2.26-8.51c-1.66-4.45-2.73-9.28-4.11-13.51
			c-3.65-11.22-8.05-22.37-12.94-33.04c-0.18-0.39,0.31-0.69,0.54-0.34c5.69,8.77,10.43,17.82,14.05,27.79
			c0.28,0.78,0.55,1.57,0.81,2.37c2.98-15.87,4.9-32.23,4.5-48.3c-6.48-1.86-12.78-5.37-17.97-8.71
			c-7.12-4.58-15.38-9.62-19.94-17.35c0.46,2.53,0.65,5.12,0.7,7.71c0,0.18,0.01,0.36,0.01,0.53c1.93,20.81-15.38,37.6-32.63,43.92
			c-5.97,2.19-12.12,3.71-18.37,4.67c-3.79,0.58-8,1.79-11.75,0.73c-11.3,18.38-33.26,30-53.37,32.41
			c-6.58,0.79-13.11,0.35-19.68-0.27c-3.36-0.31-6.72-0.69-9.93-1.68c-0.3,10.67-10.52,20.83-17.69,26.9
			c-8.07,6.83-18.01,12.03-28.54,11.79c-0.26-0.01-0.34-0.46-0.06-0.51c10.06-1.79,18.76-6.38,26.41-13.63
			c6.61-6.26,16.63-15.76,16.34-25.96c-0.66-0.33-1.31-0.7-1.95-1.11c-4.99-3.24-9.29-7.54-14.53-10.37
			c-5.9-3.18-11.78-4.86-18.08-6.75c-0.04-0.01-0.03-0.08,0.01-0.08c10.14-0.45,19.8,4.62,28.07,10.36
			c5.33,3.7,10.36,6.65,16.83,7.27c5.92,0.57,11.98,1.24,17.93,0.86c21.01-1.37,42.77-12.63,55.23-30.98c-1-1.1-1.82-2.61-2.45-3.73
			c-1.77-3.16-3.48-6.36-5.15-9.57c-3.33-6.39-7.18-12.67-10.07-19.29c-0.13-0.31,0.25-0.7,0.48-0.39
			c6.67,9.07,11.63,19.56,18.04,28.83c3.65,5.29,12.26,2.34,17.43,1.27c4.28-0.88,8.55-1.92,12.67-3.44
			c14.04-5.19,26.6-15.87,31.06-30.57c-0.02-0.21,0.01-0.44,0.12-0.69c0.08-0.18,0.16-0.37,0.23-0.55c0.47-1.74,0.82-3.54,1.05-5.39
			c0.15-2.7-0.07-5.5-0.1-7.98c-0.03-3.18-0.22-6.3-0.54-9.43c-0.01-0.02-0.01-0.03-0.02-0.05c-3.96-1.12-7.77-4.19-10.54-6.86
			c-0.37-0.36,0.13-1.07,0.54-0.75c3.53,2.76,7.6,5.45,12.14,4.5c3.12-0.66,5.74-2.03,8.29-4.05c5.34-4.23,10.42-8.84,15.72-13.12
			c0.28-0.23,0.6,0.25,0.37,0.51c-3.26,3.64-6.69,7.13-10,10.73c-2.82,3.06-5.48,6.12-9.02,8.24c-1.85,1.11-3.8,1.4-5.74,1.16
			c3.41,3.36,6,7.62,9.86,10.52c3.99,3,8.19,5.77,12.4,8.4c4.65,2.89,9.48,5.71,14.65,7.38c3.2,1.03,6.29,1.5,9.44,1.76
			c4.61,0.02,9.21-0.34,13.74-1.17c0.13-0.31,0.26-0.62,0.4-0.93c3.43-7.85,7.73-17.67,15.23-21.97c0.19-0.11,0.39,0.15,0.23,0.32
			c-6.16,6.52-9.34,14.95-12.75,23.34c-0.15,0.37-0.3,0.74-0.44,1.11c-0.73,5.3-1.15,10.65-1.33,15.86
			c-0.44,12.68,2.17,25.2,2.08,37.87c-0.1,13.95-6.55,25.66-11.94,37.77c-1.67,5.89-4.02,11.66-5.48,17.55
			c-2.47,9.99-1.59,19.55,2.41,28.22c3.02,4.49,6.76,8.59,8.07,14.13c0.28,1.19,0.82,3.09,1.75,4.45c3.81,1.02,8.57-1.61,7.3-6.79
			c-0.6-2.44-1.53-4.75-2.24-7.15c-1.55-5.26-2.88-10.74-3.02-16.28c-0.01-0.53,0.73-0.63,0.85-0.12c1.58,6.31,2.9,12.49,5.42,18.49
			c1.44,3.44,2.69,6.67,1.26,10.35c-0.73,1.86-1.95,3.24-3.4,4.14c2.17,1.62,4.95,1.96,6.74-0.86c0.43-0.67,0.42-1.87,0.48-2.65
			c0.23-2.79,0.26-5.62,0.33-8.43c0.69-0.65,1.38-1.3,2.07-1.94c0.96-0.89,2.42-1.85,3.02-3.09c0.55-1.14,0.73-2.3,0.78-3.47
			c3.84-4.65,4.41-10.92,2.25-17.2c-2.5-7.27-5.16-14.1-6.31-21.24c0.7-3.54,2.01-6.88,3.31-10.34c1.93-5.13,3.85-10.25,5.84-15.35
			c3.92-10.05,8.24-19.92,13.2-29.43c4.66-8.94,10.59-16.9,15.59-25.59c4.21-7.32,5.97-15.96,5.06-24.43
			C489.25,231.2,492.13,222.06,486.48,215.5z M287.79,334.93c14.56,0.75,21.03-16.55,34.66-18.79c-2.17-1.77-3.57-4.32-4.76-7.4
			c-2.55-6.6-4.16-13.52-6.94-20.03c-0.11-0.26,0.19-0.44,0.35-0.22c2.94,4.1,4.79,8.82,6.71,13.52c1.46,3.56,3.22,9.75,6.24,13.11
			c4.27-5.25,11.39-8.65,16.99-11.45c7.53-3.76,17-5.63,20.77-14.47c0.12-0.28,0.5-0.07,0.44,0.2c-1.63,7.36-8.42,10.5-14.2,13.57
			c-7.16,3.81-15.97,7.62-21.71,13.94c0.09,0.05,0.18,0.1,0.28,0.14c0.64,0.27,0.4,1.33-0.29,1.13c-0.29-0.09-0.57-0.18-0.84-0.29
			c-0.2,0.25-0.41,0.49-0.6,0.75c2.33,5.48,4.04,11.42,5.72,17.1c0.74,2.5,1.42,5.08,2.29,7.56c5.89-5.72,12.38-10.38,19.75-13.74
			c3.8-1.73,7.97-2.63,11.69-4.54c4.48-2.29,7.01-6.1,8.7-11c0.1-0.3,0.53-0.18,0.45,0.13c-0.9,3.66-1.91,7.72-4.68,10.36
			c-2.85,2.7-6.17,3.92-9.65,5.39c-9.13,3.83-17.7,9.29-25.21,16.04c0.16,0.36,0.32,0.72,0.49,1.08c1.36,2.77,3.13,5.24,4.66,7.9
			c0.28,0.48-0.3,1.19-0.76,0.81c-0.98-0.8-1.89-1.72-2.75-2.7c1.46,6.83,1.99,13.92,3.28,20.79c0.75,3.97,1.51,7.98,2.61,11.86
			c1.53,5.4,4.83,5.6,9.37,6.1c0.52,0.06,0.54,0.91,0,0.89c-3.67-0.18-6.28,1.5-9.14-1.6c-2.15-2.34-2.63-6.93-3.26-9.91
			c-2-9.53-3.92-19.7-4.01-29.5c0-0.01,0-0.02,0-0.03c-1.29-1.72-2.41-3.62-3.36-5.6c-3.89,3.25-8.12,6.12-12.27,8.95
			c-3.22,2.2-6.02,4.02-9.95,3.57c-0.22-0.02-0.22-0.35,0-0.37c4.51-0.28,8.28-4.48,11.73-7.15c3.14-2.43,6.23-5,9.54-7.15
			c-0.57-1.41-1.06-2.84-1.45-4.26c-1.83-6.59-3.83-13.48-4.88-20.35c-0.39-0.02-0.77-0.24-1.04-0.57
			c-12.35,2.67-21.34,21.07-35.06,16.56C287.56,335.23,287.59,334.92,287.79,334.93z M334.28,165.3
			c-7.93,11.88-17.73,21.61-28.49,30.53c-5.2,4.32-10.66,8.27-15.91,12.51c-6.2,5.01-12.85,12.46-9,21.33
			c0.13,0.31,0.14,0.6,0.06,0.86c0.16,0.39,0.28,0.78,0.4,1.22c0.21,0.77,0.29,1.61,0.53,2.36c0.09,0.3-0.29,0.42-0.44,0.2
			c-0.64-0.96-1.58-1.71-2.16-2.73c-0.27-0.47-0.57-1-0.97-1.33c-7.16-1.4-13.71-1.15-20.01,3.09c-5.36,3.62-10.88,7-16.48,10.17
			c-10.43,5.9-21.14,11.71-32.25,16.01c-0.15,0.06-0.25-0.19-0.11-0.28c12.23-7.21,24.59-14,36.57-21.68
			c5.02-3.22,10.15-7.73,15.73-9.75c5.4-1.96,10.58-1.59,15.95-0.15c-3.87-12.48,11.31-22.11,19.28-28.29
			c13.18-10.23,26.31-21.08,36.73-34.58C333.97,164.49,334.51,164.94,334.28,165.3z M441.27,205.79
			c-8.47-15.57-25.25-17.58-40.62-16.85c-0.24,0.01-0.23-0.36,0-0.39c14.28-1.66,37.09-2.51,41.3,16.93
			C442.05,205.91,441.49,206.19,441.27,205.79z"/>
	</g>
</g>
<text transform="matrix(0.9009 0 0 1 632 140.2178)"><tspan x="0" y="0" class="st4 st5">e-</tspan><tspan x="117.36" y="0" class="st6 st4 st5">GYM</tspan></text>
<rect x="659" y="297" class="st2" width="523" height="20"/>
</svg>
